<?xml version="1.0" encoding="utf-8"?>
<!-- Generator: Adobe Illustrator 22.0.0, SVG Export Plug-In . SVG Version: 6.00 Build 0)  -->
<svg version="1.1" id="Capa_1" xmlns="http://www.w3.org/2000/svg" xmlns:xlink="http://www.w3.org/1999/xlink" x="0px" y="0px"
	 viewBox="0 0 80 30" enable-background="new 0 0 80 30" xml:space="preserve">
<g>
	<path fill="black" d="M35.8,3.8l1-3.4c-6.7,0-11.1,0-13.1,0c-1.9,0.1-3.4,0.6-4.4,1.7l1,3c0.9-0.9,1.9-1.3,3-1.3l2.6,0l-5,19.2
		h4.9l5-19.2H35.8z"/>
	<polygon fill="black" points="62.4,0.4 56.5,23.1 61,23.1 67,0.4 	"/>
	<path fill="black" d="M77.1,18.9c0-0.1,0-0.3,0.1-0.4l2.9-11h-4.4l-0.4,1.3c-0.7-1-1.7-1.5-2.9-1.5c-1.2,0-2.5,0.5-3.7,1.6
		c-1.2,1.1-2.2,2.5-3,4.2c-0.7,1.5-1,3.1-1,4.6c0,2.8,0.9,4.5,2.7,5.3c0.4,0.2,0.9,0.3,1.4,0.3c1.1,0,2.2-0.4,3.4-1.3
		c0.7,1,1.7,1.5,2.8,1.5c1,0,2-0.4,3.2-1.1l0.8-2.9c-0.4,0.1-0.7,0.2-1,0.2C77.3,19.6,77.1,19.4,77.1,18.9z M73.3,15.7
		c-0.4,1.1-0.9,2-1.5,2.7c-0.6,0.7-1.2,1.1-1.7,1.1c-0.8,0-1.1-0.7-1.1-2.2c0-0.9,0.2-1.9,0.6-2.9c0.4-1.1,0.9-1.9,1.5-2.6
		c0.6-0.7,1.2-1,1.7-1c0.8,0,1.2,0.7,1.2,2.1C73.9,13.8,73.7,14.7,73.3,15.7z"/>
	<path fill="black" d="M57,24.9c-0.4,0.4-0.9,0.6-1.4,0.6c0,0-1.8,0-1.4-2.5l2.8-10.4c0.1-0.3,0.1-0.6,0.1-1c0-1.9-0.9-3.2-2.7-4
		c-0.3-0.1-0.7-0.1-1.1-0.1c-1.2,0-2.4,0.4-3.6,1.1l0.3-1.1h-4.5L41.3,23h4.5l2.5-9.5c0.2-0.4,0.4-0.7,0.8-1c0.3-0.3,0.7-0.6,1-0.8
		c0.5-0.4,0.9-0.6,1.3-0.6c0.2,0,0.4,0.1,0.5,0.2c0.4,0.2,0.5,0.5,0.5,0.9c0,0.1,0,0.2-0.1,0.3L49.6,23c0,0-0.7,1.8-0.2,3.5
		c0.1,0.2,0.2,0.5,0.3,0.7c0.1,0.3,0.3,0.5,0.5,0.8c0,0,0,0,0,0c0.1,0.1,0.1,0.1,0.2,0.2c0.8,0.9,1.9,1.3,3.1,1.3
		c1.9-0.1,3.4-0.7,4.4-1.8L57,24.9z"/>
	<path fill="black" d="M40.4,7.9c-0.7-0.3-1.4-0.5-2.1-0.5c-1.4,0-2.7,0.5-4.1,1.4c-1.4,1-2.4,2.2-3.2,3.8
		c-0.7,1.4-1.1,2.9-1.1,4.4c0,2.8,1,4.7,3,5.6c0.9,0.5,1.8,0.7,2.8,0.7c1.1,0,2.7-0.4,3.6-1l1-3.8c-1.2,1.2-3,1.3-4.6,1.3
		c0,0-1.6-0.4-1.4-2c0.5,0.2,1.1,0.2,1.7,0.2c1.6,0,3.1-0.5,4.4-1.6c1.4-1.1,2.2-2.3,2.5-3.6c0.1-0.3,0.1-0.6,0.1-1
		C43,9.8,42.2,8.5,40.4,7.9z M38.5,14.3c-0.7,0.5-1.6,0.8-2.7,0.8c-0.4,0-0.8,0-1.2-0.1c0.3-0.9,0.7-1.7,1.4-2.6
		c0.8-1,1.6-1.5,2.3-1.5c0.4,0,0.7,0.2,0.9,0.5c0.3,0.3,0.4,0.7,0.4,1C39.6,13.1,39.2,13.7,38.5,14.3z"/>
	<g>
		<polygon fill="#FF0547" points="14.1,9.8 6.1,9.8 6.1,22.9 19.2,22.9 19.2,9.8 		"/>
		<polygon fill="#9C0A65" points="14.1,9.8 6.1,9.8 6.1,22.9 0,11.2 11.7,5.2 		"/>
	</g>
</g>
</svg>
